<svg width="35" height="35" viewBox="0 0 35 35" fill="none" xmlns="http://www.w3.org/2000/svg">
<path d="M31.0332 18.273L20.8249 28.4813C20.612 28.6943 20.3319 28.8021 20.0519 28.8021C19.7719 28.8021 19.4919 28.6957 19.279 28.4813C18.8517 28.054 18.8517 27.3613 19.279 26.934L27.6207 18.5924H4.01025C3.4065 18.5924 2.9165 18.1024 2.9165 17.4986C2.9165 16.8949 3.4065 16.4049 4.01025 16.4049H27.6193L19.2775 8.06316C18.8502 7.63587 18.8502 6.94319 19.2775 6.5159C19.7048 6.08861 20.3976 6.08861 20.8249 6.5159L31.0332 16.7242C31.4605 17.1544 31.4605 17.8457 31.0332 18.273Z" fill="black"/>
</svg>
