<svg width="29" height="23" viewBox="0 0 29 23" fill="none" xmlns="http://www.w3.org/2000/svg">
<path d="M27.625 9.67708H28.7188V7.125C28.7188 3.30562 25.611 0.197914 21.7917 0.197914H7.20833C3.38896 0.197914 0.28125 3.30562 0.28125 7.125V9.67708H1.375C2.37979 9.67708 3.19792 10.4952 3.19792 11.5C3.19792 12.5048 2.37979 13.3229 1.375 13.3229H0.28125V15.875C0.28125 19.6944 3.38896 22.8021 7.20833 22.8021H21.7917C25.611 22.8021 28.7188 19.6944 28.7188 15.875V13.3229H27.625C26.6202 13.3229 25.8021 12.5048 25.8021 11.5C25.8021 10.4952 26.6202 9.67708 27.625 9.67708ZM26.5313 15.3587V15.875C26.5313 18.4883 24.405 20.6146 21.7917 20.6146H19.9688V17.3333C19.9688 16.7296 19.4787 16.2396 18.875 16.2396C18.2713 16.2396 17.7813 16.7296 17.7813 17.3333V20.6146H7.20833C4.595 20.6146 2.46875 18.4883 2.46875 15.875V15.3587C4.15021 14.8819 5.38542 13.3317 5.38542 11.5C5.38542 9.66833 4.15021 8.11813 2.46875 7.64125V7.125C2.46875 4.51166 4.595 2.38541 7.20833 2.38541H17.7813V5.66666C17.7813 6.27041 18.2713 6.76041 18.875 6.76041C19.4787 6.76041 19.9688 6.27041 19.9688 5.66666V2.38541H21.7917C24.405 2.38541 26.5313 4.51166 26.5313 7.125V7.64125C24.8498 8.11813 23.6146 9.66833 23.6146 11.5C23.6146 13.3317 24.8498 14.8819 26.5313 15.3587ZM19.9688 10.0417V12.9583C19.9688 13.5621 19.4787 14.0521 18.875 14.0521C18.2713 14.0521 17.7813 13.5621 17.7813 12.9583V10.0417C17.7813 9.43791 18.2713 8.94791 18.875 8.94791C19.4787 8.94791 19.9688 9.43791 19.9688 10.0417Z" fill="black"/>
</svg>
