<svg width="27" height="26" viewBox="0 0 27 26" fill="none" xmlns="http://www.w3.org/2000/svg">
<path d="M22.5667 3.88684L16.5806 1.44421C14.5185 0.602958 12.0603 0.602958 9.99818 1.44421L4.01208 3.88684C1.54847 4.89184 0.0185547 6.93423 0.0185547 9.21673V16.7793C0.0185547 19.0618 1.54847 21.1029 4.01208 22.1092L9.99959 24.5518C11.0204 24.9681 12.1392 25.1767 13.2581 25.1805C13.269 25.1805 13.2785 25.1867 13.2894 25.1867C13.3003 25.1867 13.3098 25.1817 13.3207 25.1805C14.4395 25.1767 15.5584 24.9681 16.5792 24.5518L22.5667 22.1092C25.0303 21.1042 26.5602 19.0618 26.5602 16.7793V9.21673C26.5602 6.93423 25.0303 4.89184 22.5667 3.88684ZM10.8271 3.1593C11.5989 2.8443 12.4441 2.68795 13.2894 2.68795C14.1346 2.68795 14.9813 2.8443 15.7517 3.1593L21.7378 5.60177C22.1407 5.76552 22.5027 5.97047 22.828 6.20297L19.4116 7.59808L9.67834 3.62683L10.8271 3.1593ZM4.8396 5.60055L7.16306 4.65298L16.8964 8.62423L14.9241 9.42929C13.9413 9.82928 12.632 9.83053 11.6506 9.42929L3.74799 6.20297C4.07601 5.96922 4.43807 5.76555 4.8396 5.60055ZM4.84101 20.3943C3.12601 19.6943 2.06022 18.3093 2.06022 16.7781V9.21551C2.06022 8.68926 2.1936 8.1842 2.42908 7.7142L10.823 11.1406C11.2736 11.3243 11.7649 11.438 12.2686 11.5142V23.2118C11.7731 23.1355 11.2872 23.023 10.8285 22.8355L4.84101 20.3943ZM24.5186 16.7793C24.5186 18.3093 23.4528 19.6955 21.7378 20.3955L15.7503 22.8379C15.2929 23.0242 14.8057 23.138 14.3102 23.213V11.5155C14.8138 11.4392 15.3052 11.3267 15.7557 11.143L24.1497 7.71679C24.3838 8.18679 24.5186 8.6917 24.5186 9.21795V16.7793Z" fill="black"/>
</svg>
