<svg width="20" height="20" viewBox="0 0 20 20" fill="none" xmlns="http://www.w3.org/2000/svg">
<path d="M18.7955 7.69471L18.2165 7.11573C17.9795 6.87873 17.8485 6.56271 17.8485 6.22571V5.41175C17.8485 3.61375 16.3865 2.15174 14.5885 2.15174H13.7735C13.4375 2.15174 13.1215 2.02082 12.8835 1.78382L12.3045 1.20471C11.0335 -0.0662851 8.96549 -0.0662851 7.69449 1.20471L7.11551 1.78382C6.87851 2.02082 6.5625 2.15174 6.2255 2.15174H5.41153C3.61353 2.15174 2.15152 3.61375 2.15152 5.41175V6.22571C2.15152 6.56171 2.02054 6.87773 1.78354 7.11573L1.2045 7.69471C-0.0664988 8.9657 -0.0664988 11.0338 1.2045 12.3048L1.78354 12.8838C2.02054 13.1208 2.15152 13.4368 2.15152 13.7738V14.5878C2.15152 16.3858 3.61353 17.8478 5.41153 17.8478H6.2255C6.5615 17.8478 6.87751 17.9787 7.11551 18.2157L7.69449 18.7948C8.33049 19.4308 9.16455 19.7488 9.99955 19.7488C10.8345 19.7488 11.6685 19.4308 12.3045 18.7948L12.8835 18.2157C13.1205 17.9787 13.4365 17.8478 13.7735 17.8478H14.5885C16.3855 17.8478 17.8485 16.3858 17.8485 14.5878V13.7738C17.8485 13.4378 17.9795 13.1218 18.2165 12.8838L18.7955 12.3048C20.0665 11.0338 20.0665 8.9657 18.7955 7.69471ZM17.7345 11.2438L17.1556 11.8228C16.6346 12.3438 16.3475 13.0357 16.3475 13.7727V14.5868C16.3475 15.5578 15.5575 16.3468 14.5875 16.3468H13.7725C13.0355 16.3468 12.3425 16.6338 11.8225 17.1548L11.2435 17.7338C10.5565 18.4208 9.44055 18.4208 8.75455 17.7338L8.17551 17.1548C7.65451 16.6338 6.9625 16.3468 6.2255 16.3468H5.41153C4.44053 16.3468 3.65152 15.5568 3.65152 14.5868V13.7727C3.65152 13.0357 3.36454 12.3428 2.84354 11.8228L2.2645 11.2438C1.5785 10.5568 1.5785 9.44076 2.2645 8.75476L2.84354 8.17578C3.36454 7.65478 3.65152 6.96271 3.65152 6.22571V5.41175C3.65152 4.44075 4.44153 3.65174 5.41153 3.65174H6.2255C6.9625 3.65174 7.65551 3.36475 8.17551 2.84375L8.75455 2.26477C9.44155 1.57777 10.5575 1.57777 11.2435 2.26477L11.8225 2.84375C12.3435 3.36475 13.0355 3.65174 13.7725 3.65174H14.5875C15.5575 3.65174 16.3475 4.44175 16.3475 5.41175V6.22571C16.3475 6.96271 16.6346 7.65578 17.1556 8.17578L17.7345 8.75476C18.4205 9.44176 18.4205 10.5578 17.7345 11.2438ZM13.5306 6.46875C13.8236 6.76175 13.8236 7.23679 13.5306 7.52979L7.53055 13.5298C7.38455 13.6758 7.19252 13.7498 7.00052 13.7498C6.80852 13.7498 6.61649 13.6768 6.47049 13.5298C6.17749 13.2368 6.17749 12.7618 6.47049 12.4688L12.4705 6.46875C12.7635 6.17675 13.2376 6.17675 13.5306 6.46875ZM13.5005 12.4998C13.5005 13.0518 13.0525 13.4998 12.5005 13.4998C11.9485 13.4998 11.5005 13.0518 11.5005 12.4998C11.5005 11.9478 11.9485 11.4998 12.5005 11.4998C13.0525 11.4998 13.5005 11.9478 13.5005 12.4998ZM6.50052 7.49976C6.50052 6.94776 6.94852 6.49976 7.50052 6.49976C8.05252 6.49976 8.50052 6.94776 8.50052 7.49976C8.50052 8.05176 8.05252 8.49976 7.50052 8.49976C6.94852 8.49976 6.50052 8.05176 6.50052 7.49976Z" fill="white"/>
</svg>
