<svg width="34" height="26" viewBox="0 0 34 26" fill="none" xmlns="http://www.w3.org/2000/svg">
<path d="M25.3333 0.0830078H8.66667C4.30167 0.0830078 0.75 3.63467 0.75 7.99967V17.9997C0.75 22.3647 4.30167 25.9163 8.66667 25.9163H25.3333C29.6983 25.9163 33.25 22.3647 33.25 17.9997V7.99967C33.25 3.63467 29.6983 0.0830078 25.3333 0.0830078ZM8.66667 2.58301H25.3333C27.59 2.58301 29.525 3.97291 30.3383 5.93791L20.005 12.828C18.18 14.043 15.82 14.043 13.9967 12.828L3.66331 5.93791C4.47498 3.97124 6.41 2.58301 8.66667 2.58301ZM25.3333 23.4163H8.66667C5.68 23.4163 3.25 20.9863 3.25 17.9997V8.66801L12.6083 14.908C13.9417 15.7964 15.47 16.2413 17 16.2413C18.5283 16.2413 20.0567 15.7964 21.3917 14.908L30.75 8.66801V17.9997C30.75 20.9863 28.32 23.4163 25.3333 23.4163Z" fill="black"/>
</svg>
