<svg width="26" height="34" viewBox="0 0 26 34" fill="none" xmlns="http://www.w3.org/2000/svg">
<path d="M13 7.41667C9.55335 7.41667 6.75001 10.22 6.75001 13.6667C6.75001 17.1133 9.55335 19.9167 13 19.9167C16.4467 19.9167 19.25 17.1133 19.25 13.6667C19.25 10.22 16.4467 7.41667 13 7.41667ZM13 17.4167C10.9317 17.4167 9.25001 15.735 9.25001 13.6667C9.25001 11.5983 10.9317 9.91667 13 9.91667C15.0683 9.91667 16.75 11.5983 16.75 13.6667C16.75 15.735 15.0683 17.4167 13 17.4167ZM12.9934 0.75C5.63335 0.75 0.0833435 6.30333 0.0833435 13.6667C0.0833435 24.0133 7.97667 30.4599 11.3683 32.7499C11.8617 33.0833 12.4267 33.25 12.9934 33.25C13.5567 33.25 14.1217 33.0834 14.615 32.7517C18.0133 30.4567 25.9167 24.0017 25.9167 13.665C25.9167 6.30171 20.3617 0.75 12.9934 0.75ZM13.2167 30.68C13.0784 30.7733 12.9067 30.7733 12.7683 30.68C10.3783 29.0667 2.58334 23.0717 2.58334 13.6667C2.58334 7.72833 7.05835 3.25 12.9934 3.25C18.935 3.25 23.4167 7.72833 23.4167 13.6667C23.4167 22.805 16.2834 28.61 13.2167 30.68Z" fill="black"/>
</svg>
