<svg width="34" height="34" viewBox="0 0 34 34" fill="none" xmlns="http://www.w3.org/2000/svg">
<path d="M33.1428 24.6663C33.1044 24.4413 33.0578 24.2448 33.0095 24.0698C32.7178 23.0281 31.8111 22.2347 30.6994 22.0514L23.4795 20.8498C22.4161 20.6715 21.3511 21.0831 20.6978 21.9197C20.6078 22.0347 20.5212 22.1513 20.4412 22.2697C20.3228 22.443 20.0878 22.6047 19.8328 22.4931C16.0878 20.8647 13.1312 17.908 11.5045 14.163C11.3912 13.9047 11.5494 13.678 11.7194 13.563C11.8778 13.4563 12.0311 13.3414 12.1794 13.2214C12.9911 12.5648 13.3945 11.5147 13.2312 10.4797L12.1128 3.38805C11.9411 2.30138 11.1962 1.41298 10.1662 1.07298C9.92452 0.992982 9.64453 0.919726 9.31953 0.861393C7.20953 0.484726 5.05114 1.08133 3.39281 2.50466C1.65448 3.998 0.69113 6.16811 0.754463 8.45478C1.11946 21.9914 12.0061 32.8798 25.5428 33.2448C25.6111 33.2465 25.6795 33.2481 25.7479 33.2481C27.9429 33.2481 30.0178 32.298 31.4661 30.6213C32.9011 28.9597 33.5128 26.788 33.1428 24.6663ZM29.5712 28.988C28.5695 30.1464 27.1128 30.7647 25.6078 30.7481C13.4011 30.4181 3.58111 20.5964 3.25111 8.38805C3.21111 6.85638 3.85446 5.4031 5.02113 4.40143C5.90279 3.64477 6.95445 3.24807 8.05112 3.24807C8.32445 3.24807 8.60117 3.27298 8.87784 3.32131C9.07117 3.35631 9.23611 3.3981 9.37944 3.44644C9.51778 3.49144 9.61944 3.61973 9.64444 3.77806L10.7628 10.8697C10.7878 11.0247 10.7278 11.1814 10.6095 11.2764C10.5128 11.3548 10.4144 11.428 10.3128 11.4964C9.08944 12.328 8.63619 13.8347 9.21119 15.1597C11.0912 19.4864 14.5095 22.9047 18.8345 24.7847C20.1545 25.3581 21.6645 24.9065 22.5062 23.6782C22.5562 23.6065 22.6078 23.5348 22.6645 23.4615C22.7545 23.3465 22.9112 23.2915 23.0695 23.3148L30.2895 24.5164C30.4428 24.543 30.5711 24.6363 30.6028 24.7447C30.6328 24.848 30.6578 24.9631 30.6811 25.0948C30.9211 26.4748 30.5162 27.893 29.5712 28.988Z" fill="black"/>
</svg>
