<svg width="24" height="24" viewBox="0 0 24 24" fill="none" xmlns="http://www.w3.org/2000/svg">
<path d="M23.1677 11.538L19.2752 15.2782L20.194 20.5544C20.344 21.4156 19.9965 22.2744 19.2865 22.7944C18.5627 23.3231 17.6177 23.3957 16.8202 22.9845L12.0002 20.4882L7.18025 22.9845C6.83775 23.162 6.46651 23.2494 6.09775 23.2494C5.61026 23.2494 5.12647 23.0956 4.71397 22.7944C4.00522 22.2744 3.6565 21.4156 3.8065 20.5544L4.72523 15.2782L0.832748 11.538C0.195248 10.9255 -0.0335271 10.0244 0.236473 9.18689C0.508973 8.33939 1.23147 7.73572 2.12147 7.60822L7.50774 6.83673L9.91524 2.03052C10.3102 1.24052 11.1102 0.75061 12.0002 0.75061C12.8902 0.75061 13.6902 1.24177 14.0852 2.03052L16.4927 6.83673L21.879 7.60822C22.7678 7.73572 23.4902 8.33939 23.7627 9.18689C24.0327 10.0244 23.8052 10.9255 23.1677 11.538Z" fill="#FFB800"/>
</svg>
