<svg width="26" height="22" viewBox="0 0 26 22" fill="none" xmlns="http://www.w3.org/2000/svg">
<path d="M8.58746 5.41299C8.22121 5.04674 8.22121 4.45295 8.58746 4.0867L12.3375 0.336699C12.7037 -0.0295508 13.2975 -0.0295508 13.6638 0.336699L17.4138 4.0867C17.78 4.45295 17.78 5.04674 17.4138 5.41299C17.2313 5.59549 16.9912 5.68796 16.7512 5.68796C16.5112 5.68796 16.2713 5.59674 16.0888 5.41299L13.9387 3.26303V9.75046C13.9387 10.268 13.5187 10.688 13.0012 10.688C12.4837 10.688 12.0637 10.268 12.0637 9.75046V3.26425L9.91376 5.41421C9.54626 5.77921 8.95371 5.77924 8.58746 5.41299ZM19.25 8.81296C18.7325 8.81296 18.3125 9.23296 18.3125 9.75046C18.3125 10.268 18.7325 10.688 19.25 10.688C21.49 10.688 23.3125 12.5105 23.3125 14.7505V16.0005C23.3125 18.2405 21.49 20.063 19.25 20.063H6.75C4.51 20.063 2.6875 18.2405 2.6875 16.0005V14.7505C2.6875 12.5105 4.51 10.688 6.75 10.688C7.2675 10.688 7.6875 10.268 7.6875 9.75046C7.6875 9.23296 7.2675 8.81296 6.75 8.81296C3.47625 8.81296 0.8125 11.4767 0.8125 14.7505V16.0005C0.8125 19.2742 3.47625 21.938 6.75 21.938H19.25C22.5238 21.938 25.1875 19.2742 25.1875 16.0005V14.7505C25.1875 11.4767 22.5238 8.81296 19.25 8.81296ZM20.5 14.7505C20.5 14.0605 19.94 13.5005 19.25 13.5005C18.56 13.5005 18 14.0605 18 14.7505C18 15.4405 18.56 16.0005 19.25 16.0005C19.94 16.0005 20.5 15.4405 20.5 14.7505Z" fill="black" fill-opacity="0.4"/>
</svg>
