<svg width="24" height="22" viewBox="0 0 24 22" fill="none" xmlns="http://www.w3.org/2000/svg">
<path d="M17.5418 17.577V18.1686C17.5418 19.1883 17.165 20.1648 16.4813 20.9196C16.3087 21.1098 16.0706 21.2066 15.8326 21.2066C15.6226 21.2066 15.4127 21.132 15.2447 20.9803C14.8865 20.656 14.8597 20.1029 15.184 19.7436C15.5748 19.3119 15.7918 18.752 15.7918 18.1675V17.5759C15.7918 15.9904 14.7243 14.6172 13.1948 14.2381C12.9323 14.1727 12.6524 14.2078 12.4272 14.3349C10.3459 15.4771 7.81068 15.4713 5.74685 14.3396C5.51235 14.2066 5.23347 14.1716 4.97097 14.2369C3.4403 14.6173 2.37281 15.9892 2.37281 17.5747V18.1662C2.37281 18.7495 2.58864 19.3096 2.98064 19.7424C3.30497 20.1006 3.27814 20.6536 2.91997 20.9779C2.56181 21.3034 2.01002 21.2766 1.68452 20.9172C1.00085 20.1624 0.624023 19.1858 0.624023 18.1662V17.5747C0.624023 15.1831 2.23747 13.1122 4.54863 12.5382C5.24047 12.3667 5.98718 12.4659 6.59735 12.8089C8.12802 13.6489 10.0261 13.6536 11.5755 12.8042C12.1786 12.4647 12.9265 12.3667 13.6171 12.5382C15.9283 13.1157 17.5418 15.1865 17.5418 17.577ZM19.4505 12.5418C18.9815 12.4263 18.5067 12.7121 18.39 13.1799C18.2733 13.6489 18.5603 14.1237 19.0281 14.2404C20.5576 14.6195 21.6252 15.9928 21.6252 17.5783V18.1697C21.6252 18.7542 21.4093 19.313 21.0173 19.7459C20.693 20.104 20.7198 20.6571 21.078 20.9826C21.246 21.1343 21.456 21.2089 21.666 21.2089C21.904 21.2089 22.142 21.1121 22.3147 20.9219C22.9983 20.1671 23.3752 19.1905 23.3752 18.1709V17.5794C23.3752 15.1866 21.7616 13.1158 19.4505 12.5418ZM3.54183 6.33274C3.54183 3.27724 6.028 0.791077 9.0835 0.791077C12.139 0.791077 14.6252 3.27724 14.6252 6.33274C14.6252 9.38824 12.139 11.8744 9.0835 11.8744C6.028 11.8744 3.54183 9.38824 3.54183 6.33274ZM5.29183 6.33274C5.29183 8.42341 6.99283 10.1244 9.0835 10.1244C11.1742 10.1244 12.8752 8.42341 12.8752 6.33274C12.8752 4.24208 11.1742 2.54108 9.0835 2.54108C6.99283 2.54108 5.29183 4.24208 5.29183 6.33274ZM20.4585 6.33274C20.4585 3.54208 18.3737 1.1784 15.6087 0.834229C15.1315 0.777062 14.6916 1.11423 14.6321 1.59373C14.5726 2.07323 14.9121 2.51077 15.3916 2.57027C17.2828 2.80594 18.7085 4.42408 18.7085 6.33274C18.7085 7.48891 18.1905 8.56804 17.2863 9.2937C16.9095 9.59587 16.8488 10.1466 17.151 10.5235C17.3236 10.7393 17.578 10.8513 17.8335 10.8513C18.026 10.8513 18.2197 10.7883 18.3807 10.6588C19.7013 9.59942 20.4585 8.02208 20.4585 6.33274Z" fill="black"/>
</svg>
