<svg width="20" height="24" viewBox="0 0 20 24" fill="none" xmlns="http://www.w3.org/2000/svg">
<path d="M9.99928 12.8747C13.3768 12.8747 16.1243 10.1272 16.1243 6.7497C16.1243 3.3722 13.3768 0.624695 9.99928 0.624695C6.62178 0.624695 3.87428 3.3722 3.87428 6.7497C3.87428 10.1272 6.62178 12.8747 9.99928 12.8747ZM9.99928 2.37469C12.4119 2.37469 14.3743 4.33703 14.3743 6.7497C14.3743 9.16236 12.4119 11.1247 9.99928 11.1247C7.58661 11.1247 5.62428 9.16236 5.62428 6.7497C5.62428 4.33703 7.58661 2.37469 9.99928 2.37469ZM19.0409 18.9612V20.1407C19.0409 21.2316 18.6431 22.2769 17.9198 23.083C17.7471 23.2767 17.5079 23.3747 17.2676 23.3747C17.0599 23.3747 16.8511 23.3011 16.6843 23.1518C16.3238 22.8298 16.2946 22.2769 16.6166 21.9164C17.0518 21.4299 17.2921 20.7999 17.2921 20.1419V18.9624C17.2921 17.1961 16.1208 15.6676 14.4419 15.2465C14.1468 15.1718 13.8295 15.2127 13.5716 15.3586C11.3538 16.5929 8.64009 16.5881 6.43626 15.362C6.17259 15.2115 5.85529 15.1683 5.56012 15.2453C3.88129 15.6677 2.70875 17.1961 2.70875 18.9624V20.1419C2.70875 20.801 2.94913 21.431 3.3843 21.9164C3.7063 22.2769 3.67591 22.8298 3.31658 23.1518C2.95491 23.475 2.40196 23.4435 2.08113 23.0842C1.35779 22.2768 0.959961 21.2315 0.959961 20.1419V18.9624C0.959961 16.3934 2.67609 14.1674 5.13309 13.549C5.85992 13.3647 6.64976 13.4698 7.29609 13.8384C8.96443 14.7671 11.0318 14.7705 12.7141 13.8349C13.3523 13.4709 14.1421 13.367 14.8713 13.5502C17.3248 14.165 19.0409 16.3911 19.0409 18.9612Z" fill="black"/>
</svg>
